<svg id="Layer_1" data-name="Layer 1" xmlns="http://www.w3.org/2000/svg" viewBox="0 0 157.9 159.7"><defs><style>.cls-1{fill:#0066a9;}</style></defs><title>comapy_logo</title><rect class="cls-1" x="30.75" y="48.76" width="30.35" height="30.35" rx="15.17"/><path class="cls-1" d="M846.64,563.47a44,44,0,0,0-43.91-43.91h0a44,44,0,0,0-43.91,43.91h0v64.17s87.81-9.78,87.82-64.16Z" transform="translate(-688.75 -519.56)"/><path class="cls-1" d="M688.75,648.7h0a30.64,30.64,0,0,0,30.55,30.55h0a30.64,30.64,0,0,0,30.55-30.55h0V604.07S688.75,610.87,688.75,648.7Zm30.55,8a8,8,0,1,1,8-8A8,8,0,0,1,719.3,656.74Z" transform="translate(-688.75 -519.56)"/></svg>