<?xml version="1.0" encoding="utf-8"?>
<!-- Generator: Adobe Illustrator 21.1.0, SVG Export Plug-In . SVG Version: 6.00 Build 0)  -->
<svg version="1.1" id="Layer_1" xmlns="http://www.w3.org/2000/svg" xmlns:xlink="http://www.w3.org/1999/xlink" x="0px" y="0px"
	 viewBox="0 0 6391.2 1331.5" style="enable-background:new 0 0 6391.2 1331.5;" xml:space="preserve">
<style type="text/css">
	.st0{fill:#84BD00;}
	.st1{fill:#00A7B5;}
	.st2{fill:#82BC41;}
	.st3{fill:#81C241;}
</style>
<g>
	<path class="st0" d="M3934,1059.2l37.8-76.4c47.9,29.4,97.4,46.2,157.9,46.2c90.7,0,140.3-46.2,140.3-135.2v-33.6
		c-37,47-83.2,80.6-156.2,80.6c-105,0-201.6-77.3-201.6-207.5v-1.7c0-131,98.3-208.3,201.6-208.3c74.8,0,121,34.4,155.4,75.6v-66.4
		h101.6v352.8c0,74.8-19.3,130.2-56.3,167.2c-40.3,40.3-102.5,59.6-182.3,59.6C4059.1,1112.1,3991.1,1093.6,3934,1059.2z
		 M4270.8,732.4v-1.7c0-72.2-59.6-121-130.2-121c-70.6,0-126,47.9-126,121v1.7c0,72.2,56.3,121.8,126,121.8
		C4211.2,854.2,4270.8,804.7,4270.8,732.4z"/>
	<path class="st0" d="M4493.4,532.5h102.5v100c27.7-66.4,79-111.7,157.1-108.4v107.5h-5.9c-89,0-151.2,58-151.2,175.6V976h-102.5
		V532.5z"/>
	<path class="st0" d="M4797.5,756.8v-1.7c0-126.8,100.8-231.8,236.9-231.8c136.1,0,236,103.3,236,230.2v1.7
		c0,126-100.8,231-237.7,231C4897.4,986.1,4797.5,882.8,4797.5,756.8z M5168.7,756.8v-1.7c0-78.1-56.3-142.8-136.1-142.8
		c-81.5,0-133.6,63.8-133.6,141.1v1.7c0,77.3,56.3,142,135.2,142C5116.7,897.1,5168.7,833.2,5168.7,756.8z"/>
	<path class="st0" d="M5302.3,532.5h109.2l119.3,325.9l120.1-325.9h106.7l-181.4,446.9h-91.6L5302.3,532.5z"/>
	<path class="st0" d="M5790.3,755.9v-1.7c0-126.8,89.9-231,216.7-231c141.1,0,212.5,110.9,212.5,238.6c0,9.2-0.8,18.5-1.7,28.6H5892
		c10.9,72.2,62.2,112.6,127.7,112.6c49.6,0,84.8-18.5,120.1-52.9l59.6,52.9c-42,50.4-100,83.2-181.4,83.2
		C5889.5,986.1,5790.3,892.9,5790.3,755.9z M6118.8,723.2c-6.7-65.5-45.4-116.8-112.6-116.8c-62.2,0-105.8,47.9-115.1,116.8H6118.8z
		"/>
</g>
<g>
	<path class="st1" d="M1479.4,619.9h-56.3V535h56.3v-32.8c0-48.7,12.6-85.7,36.1-109.2c23.5-23.5,56.3-35.3,99.1-35.3
		c36.1,0,60.5,5,83.2,11.8v85.7c-20.2-6.7-37.8-10.9-59.6-10.9c-38.6,0-58.8,21.8-58.8,67.2v24.4H1697v84h-115.9V976h-101.6V619.9z"
		/>
	<path class="st1" d="M1767.6,814.7V532.5h101.6v252c0,68.9,34.4,107.5,94.9,107.5c58.8,0,100-40.3,100-109.2V532.5h102.5V976
		h-102.5v-68.9c-28.6,42-69.7,78.1-138.6,78.1C1825.5,985.3,1767.6,918.1,1767.6,814.7z"/>
	<path class="st1" d="M2236.3,918.1l45.4-68.9c48.7,36.1,100,54.6,145.3,54.6c43.7,0,68.9-18.5,68.9-47.9v-1.7
		c0-34.4-47-46.2-99.1-62.2c-65.5-18.5-138.6-45.4-138.6-129.4V661c0-84.8,69.7-136.1,157.9-136.1c55.4,0,115.9,19.3,163,50.4
		l-40.3,72.2c-42.8-26-88.2-42-125.2-42c-39.5,0-62.2,19.3-62.2,43.7v1.7c0,32.8,47.9,46.2,100,63c64.7,20.2,137.8,49.6,137.8,129.4
		v1.7c0,93.2-72.2,139.4-164.6,139.4C2361.4,984.4,2291.7,962.6,2236.3,918.1z"/>
	<path class="st1" d="M2673.9,367.9h109.2v96.6h-109.2V367.9z M2677.3,532.5h102.5V976h-102.5V532.5z"/>
	<path class="st1" d="M2867.1,756.8v-1.7c0-126.8,100.8-231.8,236.9-231.8c136.1,0,236,103.3,236,230.2v1.7
		c0,126-100.8,231-237.7,231C2967.1,986.1,2867.1,882.8,2867.1,756.8z M3238.4,756.8v-1.7c0-78.1-56.3-142.8-136.1-142.8
		c-81.5,0-133.6,63.8-133.6,141.1v1.7c0,77.3,56.3,142,135.2,142C3186.3,897.1,3238.4,833.2,3238.4,756.8z"/>
	<path class="st1" d="M3421.5,532.5H3524v68c28.6-41.2,69.7-77.3,138.6-77.3c100,0,157.9,67.2,157.9,169.7V976h-101.6V724
		c0-68.9-34.4-108.4-94.9-108.4c-58.8,0-100,41.2-100,110V976h-102.5V532.5z"/>
</g>
<g>
	<g>
		<path class="st2" d="M691,1269.7v-112l224.9-133l-0.4-272c47.7-17,80.9-62.1,80.9-114.9c0-67.3-54.6-122.1-122-122.1
			S752,570.6,752,637.9c0,52.8,33.8,97.9,80.3,114.9v224.6L691,1061.1V530.4c46.5-17,80.8-62.1,80.8-114.9
			c0-67.3-54.7-122.1-122-122.1c-67.3,0-122.4,54.8-122.4,122.1c0,52.8,33.9,97.9,80.4,114.9v739.3 M649.8,454.8
			c-21.7,0-39.3-17.6-39.3-39.3c0-21.7,17.6-39.3,39.3-39.3c21.7,0,39.3,17.6,39.3,39.3C689,437.2,671.4,454.8,649.8,454.8z
			 M874.6,677.2c-21.7,0-39.3-17.6-39.3-39.3s17.6-39.3,39.3-39.3c21.7,0,39.3,17.6,39.3,39.3S896.3,677.2,874.6,677.2z"/>
	</g>
	<path class="st3" d="M1080.8,285.4L722.2,75.2l-0.1-0.1c-19.3-11.2-41.3-17.2-63.7-17.2c-22.4,0-44.4,5.9-63.7,17.1l-366,210.2
		l-0.2,0.1c-19.1,11.1-35.7,26.5-47.7,44.7c-13.6,20.5-21,43.4-21,66.1v420.5c0,22.8,7.6,45.8,21.5,66.4
		c12.1,17.9,28.7,33.3,47.8,44.3L559.5,1116v-93l-93-54.2v-216c46.5-17,80.6-62.1,80.6-114.9c0-67.3-54.8-122.1-122.1-122.1
		c-67.3,0-122.2,54.8-122.2,122.1c0,52.8,34,97.9,80.5,114.9v168.2l-112.8-65.1c-16.1-9.4-27.9-25.8-27.9-39.2V396.2
		c0-13.8,11.4-29.9,27.3-39.2L636,146.8l0.2-0.1c6.7-3.9,14.4-5.9,22.2-5.9c7.8,0,15.4,2,22.1,5.9l358.7,210.2l0,0.1
		c14.1,8.2,16.9,25.9,16.9,39.2v420.5c0,13.3-3.1,30.8-17.5,39.2L848.9,965l55.1,67.2l176.5-104.8c37.2-21.7,58.3-62,58.3-110.7
		V396.2C1138.8,347.3,1117.8,306.9,1080.8,285.4z M424.9,598.6c21.7,0,39.3,17.6,39.3,39.3s-17.6,39.3-39.3,39.3
		c-21.7,0-39.3-17.6-39.3-39.3S403.3,598.6,424.9,598.6z"/>
	<path class="st3" d="M417.1,1202.7h464c19.9,0,36.1,16.3,36.1,36.1v10.4c0,19.9-16.3,36.1-36.1,36.1h-464
		c-19.9,0-36.1-16.3-36.1-36.1v-10.4C381,1219,397.2,1202.7,417.1,1202.7z"/>
</g>
</svg>
